<?xml version="1.0" encoding="UTF-8" standalone="no"?>
<!-- Created with Inkscape (http://www.inkscape.org/) -->

<svg
   version="1.1"
   id="svg2"
   xml:space="preserve"
   width="558.57202"
   height="114.23867"
   viewBox="0 0 558.57202 114.23867"
   sodipodi:docname="circuito restador Simple.svg"
   inkscape:version="1.1 (c68e22c387, 2021-05-23)"
   xmlns:inkscape="http://www.inkscape.org/namespaces/inkscape"
   xmlns:sodipodi="http://sodipodi.sourceforge.net/DTD/sodipodi-0.dtd"
   xmlns="http://www.w3.org/2000/svg"
   xmlns:svg="http://www.w3.org/2000/svg"><defs
     id="defs6" /><sodipodi:namedview
     id="namedview4"
     pagecolor="#ffffff"
     bordercolor="#666666"
     borderopacity="1.0"
     inkscape:pageshadow="2"
     inkscape:pageopacity="0.0"
     inkscape:pagecheckerboard="0"
     showgrid="false"
     inkscape:zoom="2.1769798"
     inkscape:cx="279.05633"
     inkscape:cy="57.189323"
     inkscape:window-width="1920"
     inkscape:window-height="1017"
     inkscape:window-x="-8"
     inkscape:window-y="-8"
     inkscape:window-maximized="1"
     inkscape:current-layer="g8" /><g
     id="g8"
     inkscape:groupmode="layer"
     inkscape:label="restador"
     transform="matrix(1.3333333,0,0,-1.3333333,0,114.23867)"><g
       id="g10"
       transform="translate(-4.981,90.66)"><g
         id="g12"><g
           id="g14"><g
             id="g16"><path
               d="m 198.2591,-74.72076 h 169.36706 v 19.92553"
               style="fill:none;stroke:#000000;stroke-width:2.98883;stroke-linecap:square;stroke-linejoin:miter;stroke-miterlimit:10;stroke-dasharray:none;stroke-opacity:1"
               id="path18" /></g><g
             id="g20"><path
               d="M 198.2591,-24.90692 H 367.62616"
               style="fill:none;stroke:#000000;stroke-width:2.98883;stroke-linecap:square;stroke-linejoin:miter;stroke-miterlimit:10;stroke-dasharray:none;stroke-opacity:1"
               id="path22" /></g><g
             id="g24"><path
               d="M 118.55695,-14.94415 V -64.758 h 39.85107"
               style="fill:none;stroke:#000000;stroke-width:2.98883;stroke-linecap:square;stroke-linejoin:miter;stroke-miterlimit:10;stroke-dasharray:none;stroke-opacity:1"
               id="path26" /></g><g
             id="g28"><path
               d="m 98.63141,-34.86969 v -49.81384 h 69.73938"
               style="fill:none;stroke:#000000;stroke-width:2.98883;stroke-linecap:square;stroke-linejoin:miter;stroke-miterlimit:10;stroke-dasharray:none;stroke-opacity:1"
               id="path30" /></g><g
             id="g32"><path
               d="m 123.53833,-14.94415 c 0,-2.75118 -2.23021,-4.98139 -4.98138,-4.98139 -2.75119,0 -4.98139,2.23021 -4.98139,4.98139 0,2.75119 2.2302,4.98138 4.98139,4.98138 2.75117,0 4.98138,-2.23019 4.98138,-4.98138 z"
               style="fill:#000000;fill-opacity:1;fill-rule:nonzero;stroke:none"
               id="path34" /></g><g
             id="g36"><path
               d="m 103.6128,-34.86969 c 0,-2.75117 -2.23022,-4.98138 -4.98139,-4.98138 -2.75119,0 -4.98139,2.23021 -4.98139,4.98138 0,2.75119 2.2302,4.98139 4.98139,4.98139 2.75117,0 4.98139,-2.2302 4.98139,-4.98139 z"
               style="fill:#000000;fill-opacity:1;fill-rule:nonzero;stroke:none"
               id="path38" /></g><g
             id="g40"><path
               d="m 43.83618,-23.91064 9.96277,8.96649 -9.96277,8.96649 H 19.92554 v -17.93298 z"
               style="fill:none;stroke:#000000;stroke-width:1.99255;stroke-linecap:square;stroke-linejoin:miter;stroke-miterlimit:10;stroke-dasharray:none;stroke-opacity:1"
               id="path42" /></g><g
             id="g44"><g
               id="g46" /><g
               id="g48"
               transform="translate(5.977,-22.914)"><g
                 id="g50"><g
                   id="g52"
                   transform="translate(-0.996,-67.746)"><text
                     transform="matrix(1,0,0,-1,0.996,67.746)"
                     style="font-variant:normal;font-weight:normal;font-size:17.2154px;font-family:CMBX12;-inkscape-font-specification:CMBX12;writing-mode:lr-tb;fill:#000000;fill-opacity:1;fill-rule:nonzero;stroke:none"
                     id="text56"><tspan
                       x="0"
                       y="0"
                       id="tspan54">A</tspan></text><g
                     id="g58"
                     transform="translate(0.996,67.746)" /></g></g><g
                 id="g60"
                 transform="translate(-5.977,22.914)" /></g></g><g
             id="g62"><path
               d="m 60.77289,-14.94415 c 0,-1.10047 -0.89209,-1.99255 -1.99256,-1.99255 -1.10047,0 -1.99255,0.89208 -1.99255,1.99255 0,1.10048 0.89208,1.99255 1.99255,1.99255 1.10047,0 1.99256,-0.89207 1.99256,-1.99255 z"
               style="fill:#000000;fill-opacity:1;fill-rule:nonzero;stroke:none"
               id="path64" /></g><g
             id="g66"><path
               d="m 53.79895,-14.94415 h 4.98138 59.77662 39.85107 1.99255"
               style="fill:none;stroke:#000000;stroke-width:2.98883;stroke-linecap:square;stroke-linejoin:miter;stroke-miterlimit:10;stroke-dasharray:none;stroke-opacity:1"
               id="path68" /></g><g
             id="g70"><path
               d="m 198.2591,-24.90692 c -9.96277,14.94415 -9.96277,14.94415 -29.88831,14.94415 7.97021,-14.94415 7.97021,-14.94415 0,-29.8883 19.92554,0 19.92554,0 29.88831,14.94415 z"
               style="fill:none;stroke:#000000;stroke-width:1.99255;stroke-linecap:square;stroke-linejoin:miter;stroke-miterlimit:10;stroke-dasharray:none;stroke-opacity:1"
               id="path72" /></g><g
             id="g74"><path
               d="m 158.40802,-9.96277 c 7.97021,-14.94415 7.97021,-14.94415 0,-29.8883"
               style="fill:none;stroke:#000000;stroke-width:1.99255;stroke-linecap:square;stroke-linejoin:miter;stroke-miterlimit:10;stroke-dasharray:none;stroke-opacity:1"
               id="path76" /></g><g
             id="g78"><path
               d="m 167.87265,-64.758 c 0,-2.47604 -2.0072,-4.48324 -4.48325,-4.48324 -2.47605,0 -4.48324,2.0072 -4.48324,4.48324 0,2.47606 2.00719,4.48325 4.48324,4.48325 2.47605,0 4.48325,-2.00719 4.48325,-4.48325 z"
               style="fill:none;stroke:#000000;stroke-width:1.99255;stroke-linecap:square;stroke-linejoin:miter;stroke-miterlimit:10;stroke-dasharray:none;stroke-opacity:1"
               id="path80" /></g><g
             id="g82"><path
               d="m 183.31494,-89.66492 c 8.25353,0 14.94416,6.69063 14.94416,14.94416 0,8.25354 -6.69063,14.94415 -14.94416,14.94415"
               style="fill:none;stroke:#000000;stroke-width:1.99255;stroke-linecap:square;stroke-linejoin:miter;stroke-miterlimit:10;stroke-dasharray:none;stroke-opacity:1"
               id="path84" /></g><g
             id="g86"><path
               d="m 183.31494,-59.77661 h -13.94787 v -29.88831 h 13.94787"
               style="fill:none;stroke:#000000;stroke-width:1.99255;stroke-linecap:square;stroke-linejoin:miter;stroke-miterlimit:10;stroke-dasharray:none;stroke-opacity:1"
               id="path88" /></g><g
             id="g90"><path
               d="m 371.61127,-24.90692 h -2.98883"
               style="fill:none;stroke:#000000;stroke-width:2.98883;stroke-linecap:square;stroke-linejoin:miter;stroke-miterlimit:10;stroke-dasharray:none;stroke-opacity:1"
               id="path92" /></g><g
             id="g94"><path
               d="m 397.51447,-15.94043 9.96276,-8.96649 -9.96276,-8.96649 h -23.91065 v 17.93298 z"
               style="fill:none;stroke:#000000;stroke-width:1.99255;stroke-linecap:square;stroke-linejoin:miter;stroke-miterlimit:10;stroke-dasharray:none;stroke-opacity:1"
               id="path96" /></g><g
             id="g98"><g
               id="g100" /><g
               id="g102"
               transform="translate(409.464,-32.877)"><g
                 id="g104"><g
                   id="g106"
                   transform="translate(-404.483,-57.783)"><text
                     transform="matrix(1,0,0,-1,404.483,57.783)"
                     style="font-variant:normal;font-weight:normal;font-size:17.2154px;font-family:CMBX12;-inkscape-font-specification:CMBX12;writing-mode:lr-tb;fill:#000000;fill-opacity:1;fill-rule:nonzero;stroke:none"
                     id="text110"><tspan
                       x="0"
                       y="0"
                       id="tspan108">R</tspan></text><g
                     id="g112"
                     transform="translate(404.483,57.783)" /></g></g><g
                 id="g114"
                 transform="translate(-409.464,32.877)" /></g></g><g
             id="g116"><path
               d="m 369.61871,-24.90692 c 0,-1.10047 -0.89209,-1.99256 -1.99255,-1.99256 -1.10048,0 -1.99256,0.89209 -1.99256,1.99256 0,1.10048 0.89208,1.99255 1.99256,1.99255 1.10046,0 1.99255,-0.89207 1.99255,-1.99255 z"
               style="fill:#000000;fill-opacity:1;fill-rule:nonzero;stroke:none"
               id="path118" /></g><g
             id="g120"><path
               d="m 371.61127,-54.79523 h -2.98883"
               style="fill:none;stroke:#000000;stroke-width:2.98883;stroke-linecap:square;stroke-linejoin:miter;stroke-miterlimit:10;stroke-dasharray:none;stroke-opacity:1"
               id="path122" /></g><g
             id="g124"><path
               d="m 397.51447,-45.82874 9.96276,-8.96649 -9.96276,-8.96649 h -23.91065 v 17.93298 z"
               style="fill:none;stroke:#000000;stroke-width:1.99255;stroke-linecap:square;stroke-linejoin:miter;stroke-miterlimit:10;stroke-dasharray:none;stroke-opacity:1"
               id="path126" /></g><g
             id="g128"><g
               id="g130" /><g
               id="g132"
               transform="translate(409.464,-62.765)"><g
                 id="g134"><g
                   id="g136"
                   transform="translate(-404.483,-27.895)"><text
                     transform="matrix(1,0,0,-1,404.483,27.895)"
                     style="font-variant:normal;font-weight:normal;font-size:17.2154px;font-family:CMBX12;-inkscape-font-specification:CMBX12;writing-mode:lr-tb;fill:#000000;fill-opacity:1;fill-rule:nonzero;stroke:none"
                     id="text140"><tspan
                       x="0"
                       y="0"
                       id="tspan138">P</tspan></text><g
                     id="g142"
                     transform="translate(404.483,27.895)" /></g></g><g
                 id="g144"
                 transform="translate(-409.464,62.765)" /></g></g><g
             id="g146"><path
               d="m 369.61871,-54.79523 c 0,-1.10046 -0.89209,-1.99255 -1.99255,-1.99255 -1.10048,0 -1.99256,0.89209 -1.99256,1.99255 0,1.10048 0.89208,1.99256 1.99256,1.99256 1.10046,0 1.99255,-0.89208 1.99255,-1.99256 z"
               style="fill:#000000;fill-opacity:1;fill-rule:nonzero;stroke:none"
               id="path148" /></g><g
             id="g150"><path
               d="m 53.79895,-34.86969 h 4.98138 39.85108 59.77661 1.99255"
               style="fill:none;stroke:#000000;stroke-width:2.98883;stroke-linecap:square;stroke-linejoin:miter;stroke-miterlimit:10;stroke-dasharray:none;stroke-opacity:1"
               id="path152" /></g><g
             id="g154"><path
               d="m 43.83618,-43.83618 9.96277,8.96649 -9.96277,8.96649 H 19.92554 v -17.93298 z"
               style="fill:none;stroke:#000000;stroke-width:1.99255;stroke-linecap:square;stroke-linejoin:miter;stroke-miterlimit:10;stroke-dasharray:none;stroke-opacity:1"
               id="path156" /></g><g
             id="g158"><g
               id="g160" /><g
               id="g162"
               transform="translate(4.981,-42.839)"><g
                 id="g164"><g
                   id="g166"
                   transform="translate(0,-47.821)"><text
                     transform="matrix(1,0,0,-1,0,47.821)"
                     style="font-variant:normal;font-weight:normal;font-size:17.2154px;font-family:CMBX12;-inkscape-font-specification:CMBX12;writing-mode:lr-tb;fill:#000000;fill-opacity:1;fill-rule:nonzero;stroke:none"
                     id="text170"><tspan
                       x="0"
                       y="0"
                       id="tspan168">B</tspan></text><g
                     id="g172"
                     transform="translate(0,47.821)" /></g></g><g
                 id="g174"
                 transform="translate(-4.981,42.839)" /></g></g><g
             id="g176"><path
               d="m 60.77289,-34.86969 c 0,-1.10046 -0.89209,-1.99255 -1.99256,-1.99255 -1.10047,0 -1.99255,0.89209 -1.99255,1.99255 0,1.10048 0.89208,1.99255 1.99255,1.99255 1.10047,0 1.99256,-0.89207 1.99256,-1.99255 z"
               style="fill:#000000;fill-opacity:1;fill-rule:nonzero;stroke:none"
               id="path178" /></g></g></g></g></g></svg>
